<!DOCTYPE svg PUBLIC "-//W3C//DTD SVG 20010904//EN" "http://www.w3.org/TR/2001/REC-SVG-20010904/DTD/svg10.dtd">
<svg version="1.0" xmlns="http://www.w3.org/2000/svg" width="500px" height="333px" viewBox="0 0 5000 3330" preserveAspectRatio="xMidYMid meet">
<g id="layer1" fill="#d2b0b0" stroke="none">
 <path d="M1555 2100 c-8 -13 20 -24 45 -17 10 3 24 -1 30 -8 13 -15 58 -26 65 -15 7 12 -21 31 -49 34 -14 1 -29 6 -33 9 -10 11 -51 8 -58 -3z"/>
 <path d="M1461 2066 c-7 -8 -8 -17 -3 -20 6 -3 15 1 21 8 7 8 8 17 3 20 -6 3 -15 -1 -21 -8z"/>
 <path d="M1421 2046 c-9 -10 -9 -16 -1 -21 17 -10 37 12 24 25 -8 8 -15 6 -23 -4z"/>
 <path d="M1727 2044 c-3 -4 -2 -16 4 -26 8 -15 14 -17 22 -9 8 8 7 15 -4 26 -8 9 -18 13 -22 9z"/>
 <path d="M1370 1994 c-9 -10 -10 -18 -3 -25 8 -8 14 -5 22 9 13 25 -2 38 -19 16z"/>
 <path d="M1757 1994 c-3 -4 -2 -16 4 -26 8 -15 14 -17 22 -9 8 8 7 15 -4 26 -8 9 -18 13 -22 9z"/>
 <path d="M935 1971 c-6 -11 29 -33 39 -24 7 7 -12 33 -25 33 -4 0 -10 -4 -14 -9z"/>
 <path d="M1517 1964 c-15 -8 -25 -19 -22 -24 9 -14 20 -12 46 8 29 24 12 35 -24 16z"/>
 <path d="M1607 1973 c-4 -3 2 -16 13 -28 12 -12 23 -35 24 -51 5 -39 4 -38 20 -25 11 9 12 19 5 40 -12 33 -52 75 -62 64z"/>
 <path d="M2356 1972 c-2 -4 6 -18 19 -30 28 -27 46 -11 19 19 -18 20 -30 24 -38 11z"/>
 <path d="M825 1961 c-7 -12 12 -24 25 -16 11 7 4 25 -10 25 -5 0 -11 -4 -15 -9z"/>
 <path d="M2141 1947 c-6 -8 -8 -17 -5 -20 10 -9 45 13 39 24 -9 13 -21 11 -34 -4z"/>
 <path d="M2195 1951 c-6 -11 29 -33 39 -24 7 7 -12 33 -25 33 -4 0 -10 -4 -14 -9z"/>
 <path d="M2656 1951 c-4 -6 -13 -8 -20 -5 -17 6 -31 -12 -16 -21 5 -3 16 -3 23 2 6 4 17 8 22 8 14 0 19 19 7 23 -6 2 -13 -1 -16 -7z"/>
 <path d="M2706 1951 c-9 -14 32 -34 51 -26 10 3 13 9 7 14 -16 15 -52 22 -58 12z"/>
 <path d="M3175 1950 c-4 -6 -11 -8 -16 -4 -13 7 -41 -15 -33 -27 3 -5 14 -5 25 1 10 6 19 8 19 5 0 -3 9 -1 20 5 11 6 18 15 15 21 -8 12 -22 12 -30 -1z"/>
 <path d="M4045 1951 c-6 -11 29 -33 39 -24 7 7 -12 33 -25 33 -4 0 -10 -4 -14 -9z"/>
 <path d="M3955 1941 c-7 -12 12 -24 25 -16 11 7 4 25 -10 25 -5 0 -11 -4 -15 -9z"/>
 <path d="M1157 1934 c-3 -4 -2 -16 4 -26 8 -15 14 -17 22 -9 8 8 7 15 -4 26 -8 9 -18 13 -22 9z"/>
 <path d="M1386 1933 c-12 -12 -6 -22 24 -36 24 -12 31 -13 40 -2 8 9 8 15 0 20 -5 3 -10 3 -10 -1 0 -3 -11 1 -24 9 -13 9 -26 13 -30 10z"/>
 <path d="M1777 1934 c-3 -4 -2 -16 4 -26 8 -15 14 -17 22 -9 8 8 7 15 -4 26 -8 9 -18 13 -22 9z"/>
 <path d="M2786 1922 c-3 -5 3 -17 13 -26 11 -10 22 -13 25 -8 3 5 -3 17 -13 26 -11 10 -22 13 -25 8z"/>
 <path d="M3306 1911 c-7 -11 69 -73 78 -64 7 7 -52 73 -65 73 -4 0 -10 -4 -13 -9z"/>
 <path d="M3051 1886 c-13 -13 -18 -26 -13 -30 5 -3 19 5 31 18 13 13 18 26 13 30 -5 3 -19 -5 -31 -18z"/>
 <path d="M4135 1901 c-6 -11 29 -33 39 -24 7 7 -12 33 -25 33 -4 0 -10 -4 -14 -9z"/>
 <path d="M1525 1891 c-7 -12 12 -24 25 -16 11 7 4 25 -10 25 -5 0 -11 -4 -15 -9z"/>
 <path d="M710 1864 c-9 -10 -10 -18 -3 -25 8 -8 14 -5 22 9 13 25 -2 38 -19 16z"/>
 <path d="M2387 1873 c-8 -15 -2 -68 8 -68 12 0 17 63 5 70 -5 3 -11 2 -13 -2z"/>
 <path d="M3590 1864 c-9 -10 -10 -18 -3 -25 8 -8 14 -5 22 9 13 25 -2 38 -19 16z"/>
 <path d="M2846 1862 c-3 -6 1 -15 8 -21 8 -7 17 -8 20 -3 3 6 -1 15 -8 21 -8 7 -17 8 -20 3z"/>
 <path d="M4187 1863 c-3 -3 3 -23 14 -45 13 -25 24 -37 30 -31 6 6 3 21 -6 41 -18 34 -29 45 -38 35z"/>
 <path d="M1151 1831 c-8 -13 -8 -28 -1 -46 7 -19 6 -35 -4 -60 -16 -37 -7 -55 14 -30 15 18 22 143 9 150 -4 3 -13 -3 -18 -14z"/>
 <path d="M1415 1841 c-7 -12 12 -24 25 -16 11 7 4 25 -10 25 -5 0 -11 -4 -15 -9z"/>
 <path d="M2631 1821 c-15 -12 -20 -21 -13 -25 14 -8 64 23 56 35 -8 13 -16 11 -43 -10z"/>
 <path d="M2695 1831 c-7 -12 12 -24 25 -16 11 7 4 25 -10 25 -5 0 -11 -4 -15 -9z"/>
 <path d="M3215 1831 c-7 -13 32 -34 47 -25 7 5 5 11 -7 21 -22 15 -32 16 -40 4z"/>
 <path d="M3387 1834 c-3 -4 -2 -16 4 -26 8 -15 14 -17 22 -9 8 8 7 15 -4 26 -8 9 -18 13 -22 9z"/>
 <path d="M3725 1830 c-4 -6 -3 -16 3 -22 6 -6 12 -6 17 2 4 6 3 16 -3 22 -6 6 -12 6 -17 -2z"/>
 <path d="M3985 1831 c-7 -12 12 -24 25 -16 11 7 4 25 -10 25 -5 0 -11 -4 -15 -9z"/>
 <path d="M2160 1811 c-5 -11 -6 -22 -1 -25 11 -7 43 28 34 37 -11 12 -22 8 -33 -12z"/>
 <path d="M2486 1822 c-3 -6 1 -15 8 -21 8 -7 17 -8 20 -3 3 6 -1 15 -8 21 -8 7 -17 8 -20 3z"/>
 <path d="M1365 1810 c-11 -17 5 -32 21 -19 7 6 11 15 8 20 -7 12 -21 11 -29 -1z"/>
 <path d="M2020 1804 c-9 -10 -10 -18 -3 -25 8 -8 14 -5 22 9 13 25 -2 38 -19 16z"/>
 <path d="M3575 1810 c-4 -6 -3 -16 3 -22 6 -6 12 -6 17 2 4 6 3 16 -3 22 -6 6 -12 6 -17 -2z"/>
 <path d="M3936 1795 c-20 -16 -25 -25 -16 -30 7 -4 22 3 37 18 33 32 17 42 -21 12z"/>
 <path d="M4075 1810 c-4 -6 -3 -16 3 -22 6 -6 12 -6 17 2 4 6 3 16 -3 22 -6 6 -12 6 -17 -2z"/>
 <path d="M1005 1800 c-4 -6 -3 -16 3 -22 6 -6 12 -6 17 2 4 6 3 16 -3 22 -6 6 -12 6 -17 -2z"/>
 <path d="M2737 1803 c-4 -3 -2 -12 5 -20 14 -17 -19 -54 -69 -78 -23 -11 -32 -20 -25 -27 12 -12 45 4 85 41 43 39 49 56 28 75 -10 9 -21 13 -24 9z"/>
 <path d="M2875 1790 c-4 -6 -3 -16 3 -22 6 -6 12 -6 17 2 4 6 3 16 -3 22 -6 6 -12 6 -17 -2z"/>
 <path d="M1794 1776 c-4 -10 -2 -22 4 -28 8 -8 13 -7 18 6 4 10 2 22 -4 28 -8 8 -13 7 -18 -6z"/>
 <path d="M2516 1781 c-9 -15 23 -36 35 -24 8 8 5 14 -9 22 -12 6 -23 7 -26 2z"/>
 <path d="M3856 1781 c-9 -15 23 -36 35 -24 8 8 5 14 -9 22 -12 6 -23 7 -26 2z"/>
 <path d="M3270 1764 c-9 -10 -10 -18 -3 -25 8 -8 14 -5 22 9 13 25 -2 38 -19 16z"/>
 <path d="M664 1756 c-4 -10 -2 -22 4 -28 8 -8 13 -7 18 6 4 10 2 22 -4 28 -8 8 -13 7 -18 -6z"/>
 <path d="M1515 1756 c-14 -10 -15 -15 -6 -21 8 -4 19 -1 28 8 20 19 1 30 -22 13z"/>
 <path d="M4056 1734 c-22 -19 -45 -34 -51 -34 -16 0 -38 -27 -28 -33 13 -8 104 45 120 70 23 35 1 33 -41 -3z"/>
 <path d="M4206 1742 c-20 -39 -3 -52 20 -17 12 18 14 29 6 37 -7 7 -15 1 -26 -20z"/>
 <path d="M786 1742 c-3 -6 1 -15 8 -21 8 -7 17 -8 20 -3 3 6 -1 15 -8 21 -8 7 -17 8 -20 3z"/>
 <path d="M2398 1743 c-8 -14 -3 -38 7 -41 12 -3 16 36 4 43 -4 3 -9 2 -11 -2z"/>
 <path d="M2005 1730 c-4 -6 -3 -16 3 -22 6 -6 12 -6 17 2 4 6 3 16 -3 22 -6 6 -12 6 -17 -2z"/>
 <path d="M3725 1730 c-4 -6 -3 -16 3 -22 6 -6 12 -6 17 2 4 6 3 16 -3 22 -6 6 -12 6 -17 -2z"/>
 <path d="M1330 1714 c-9 -10 -10 -18 -3 -25 8 -8 14 -5 22 9 13 25 -2 38 -19 16z"/>
 <path d="M3585 1721 c-4 -8 -1 -19 8 -28 19 -20 30 -1 13 22 -10 14 -15 15 -21 6z"/>
 <path d="M2135 1698 c-10 -25 -1 -143 10 -141 14 4 19 133 6 146 -7 7 -12 6 -16 -5z"/>
 <path d="M3365 1700 c-4 -6 -3 -16 3 -22 6 -6 12 -6 17 2 4 6 3 16 -3 22 -6 6 -12 6 -17 -2z"/>
 <path d="M1451 1682 c-13 -25 2 -38 19 -16 9 10 10 18 3 25 -8 8 -14 5 -22 -9z"/>
 <path d="M1661 1686 c-7 -8 -8 -17 -3 -20 6 -3 15 1 21 8 7 8 8 17 3 20 -6 3 -15 -1 -21 -8z"/>
 <path d="M2831 1676 c-7 -8 -8 -17 -3 -20 6 -3 15 1 21 8 7 8 8 17 3 20 -6 3 -15 -1 -21 -8z"/>
 <path d="M2002 1668 c-16 -16 -15 -43 3 -58 8 -7 15 -11 16 -9 4 20 3 72 -2 75 -3 2 -11 -2 -17 -8z"/>
 <path d="M4156 1661 c-10 -11 -13 -22 -8 -25 5 -3 17 3 26 13 10 11 13 22 8 25 -5 3 -17 -3 -26 -13z"/>
 <path d="M926 1663 c-4 -4 -16 -8 -26 -8 -28 0 -25 -20 3 -21 29 -1 59 14 52 27 -7 11 -19 12 -29 2z"/>
 <path d="M2571 1657 c-6 -8 -8 -17 -5 -20 10 -9 45 13 39 24 -9 13 -21 11 -34 -4z"/>
 <path d="M3896 1641 c-21 -22 -29 -40 -30 -70 0 -22 3 -42 9 -43 5 -2 10 11 11 28 2 39 19 70 45 84 11 6 17 15 14 21 -10 15 -20 11 -49 -20z"/>
 <path d="M705 1650 c-9 -14 23 -62 35 -55 6 4 4 18 -5 36 -17 32 -21 34 -30 19z"/>
 <path d="M1120 1636 c-9 -11 -8 -20 1 -38 7 -13 12 -28 11 -35 -1 -6 2 -14 7 -17 14 -9 24 13 14 27 -5 7 -8 24 -7 39 3 33 -9 44 -26 24z"/>
 <path d="M2275 1640 c-4 -6 -3 -16 3 -22 6 -6 12 -6 17 2 4 6 3 16 -3 22 -6 6 -12 6 -17 -2z"/>
 <path d="M3065 1630 c-13 -14 -15 -24 -8 -31 7 -7 15 -2 26 15 21 31 6 43 -18 16z"/>
 <path d="M3745 1640 c-4 -6 -3 -16 3 -22 6 -6 12 -6 17 2 4 6 3 16 -3 22 -6 6 -12 6 -17 -2z"/>
 <path d="M2771 1626 c-8 -10 -9 -16 -1 -21 6 -3 8 -10 5 -15 -3 -5 -1 -11 4 -14 5 -4 12 -2 15 3 4 5 2 13 -4 16 -8 5 -8 11 0 20 7 8 7 16 2 19 -6 3 -15 -1 -21 -8z"/>
 <path d="M2391 1612 c-13 -25 2 -38 19 -16 9 10 10 18 3 25 -8 8 -14 5 -22 -9z"/>
 <path d="M3261 1610 c-36 -18 -49 -48 -25 -57 14 -5 49 16 40 25 -3 2 4 12 16 22 30 24 9 31 -31 10z"/>
 <path d="M4080 1610 c-19 -10 -39 -16 -43 -13 -4 3 -14 -1 -23 -7 -11 -10 -11 -16 -3 -26 18 -22 97 -5 83 18 -4 5 5 3 19 -7 27 -18 46 -5 22 15 -8 7 -13 16 -10 20 11 18 -11 17 -45 0z"/>
 <path d="M1616 1595 c-25 -38 -8 -53 19 -19 22 27 24 44 6 44 -5 0 -16 -11 -25 -25z"/>
 <path d="M1803 1594 c-12 -25 -11 -64 2 -64 6 0 10 8 10 18 1 9 4 23 9 30 5 8 4 18 -2 24 -7 7 -13 4 -19 -8z"/>
 <path d="M2720 1600 c-8 -5 -18 -6 -22 -3 -5 2 -15 -1 -24 -7 -21 -19 1 -40 38 -36 39 5 51 18 36 39 -9 11 -18 14 -28 7z"/>
 <path d="M1496 1582 c-3 -6 1 -15 8 -21 8 -7 17 -8 20 -3 3 6 -1 15 -8 21 -8 7 -17 8 -20 3z"/>
 <path d="M3328 1574 c-10 -10 21 -66 32 -59 6 4 10 10 10 14 0 15 -35 53 -42 45z"/>
 <path d="M2005 1560 c-4 -6 -3 -16 3 -22 6 -6 12 -6 17 2 4 6 3 16 -3 22 -6 6 -12 6 -17 -2z"/>
 <path d="M2525 1551 c-4 -8 -1 -19 8 -28 19 -20 30 -1 13 22 -10 14 -15 15 -21 6z"/>
 <path d="M2817 1554 c-3 -4 -2 -16 4 -26 8 -15 14 -17 22 -9 8 8 7 15 -4 26 -8 9 -18 13 -22 9z"/>
 <path d="M1535 1540 c-3 -6 1 -13 9 -16 21 -8 49 3 41 16 -8 13 -42 13 -50 0z"/>
 <path d="M3736 1522 c-20 -39 -3 -52 20 -17 12 18 14 29 6 37 -7 7 -15 1 -26 -20z"/>
 <path d="M855 1531 c-7 -12 12 -24 25 -16 11 7 4 25 -10 25 -5 0 -11 -4 -15 -9z"/>
 <path d="M926 1531 c-9 -15 23 -36 35 -24 8 8 5 14 -9 22 -12 6 -23 7 -26 2z"/>
 <path d="M3055 1531 c-4 -8 -1 -19 8 -28 19 -20 30 -1 13 22 -10 14 -15 15 -21 6z"/>
 <path d="M4143 1494 c-21 -21 -29 -36 -22 -40 15 -9 76 53 64 65 -6 5 -23 -5 -42 -25z"/>
 <path d="M1095 1511 c-7 -12 12 -24 25 -16 11 7 4 25 -10 25 -5 0 -11 -4 -15 -9z"/>
 <path d="M1046 1502 c-3 -6 1 -15 8 -21 8 -7 17 -8 20 -3 3 6 -1 15 -8 21 -8 7 -17 8 -20 3z"/>
 <path d="M2025 1491 c-7 -12 12 -24 25 -16 11 7 4 25 -10 25 -5 0 -11 -4 -15 -9z"/>
 <path d="M2102 1484 c-32 -22 -18 -35 18 -17 17 8 28 19 25 24 -8 13 -17 11 -43 -7z"/>
 <path d="M3106 1481 c-9 -15 23 -36 35 -24 8 8 5 14 -9 22 -12 6 -23 7 -26 2z"/>
 <path d="M3926 1481 c-9 -15 23 -36 35 -24 8 8 5 14 -9 22 -12 6 -23 7 -26 2z"/>
 <path d="M1794 1453 c-13 -17 -31 -28 -50 -29 -16 -1 -31 -3 -33 -3 -9 -2 23 -31 35 -31 24 0 90 67 78 79 -7 8 -16 3 -30 -16z"/>
 <path d="M3650 1464 c-9 -10 -10 -18 -3 -25 8 -8 14 -5 22 9 13 25 -2 38 -19 16z"/>
 <path d="M3737 1444 c-3 -4 -2 -16 4 -26 8 -15 14 -17 22 -9 8 8 7 15 -4 26 -8 9 -18 13 -22 9z"/>
 <path d="M1505 1421 c-7 -12 12 -24 25 -16 11 7 4 25 -10 25 -5 0 -11 -4 -15 -9z"/>
 <path d="M1555 1421 c-7 -12 12 -24 25 -16 11 7 4 25 -10 25 -5 0 -11 -4 -15 -9z"/>
 <path d="M3615 1391 c-4 -8 -1 -19 8 -28 19 -20 30 -1 13 22 -10 14 -15 15 -21 6z"/>
 <path d="M3656 1341 c-9 -15 23 -36 35 -24 8 8 5 14 -9 22 -12 6 -23 7 -26 2z"/>
 </g>
<g id="layer2" fill="#8b3f41" stroke="none">
 <path d="M1535 2086 c-14 -10 -15 -15 -6 -21 8 -4 19 -1 28 8 20 19 1 30 -22 13z"/>
 <path d="M1606 2091 c-9 -15 23 -36 35 -24 8 8 5 14 -9 22 -12 6 -23 7 -26 2z"/>
 <path d="M1475 2071 c-7 -12 12 -24 25 -16 11 7 4 25 -10 25 -5 0 -11 -4 -15 -9z"/>
 <path d="M1666 2071 c-9 -15 23 -36 35 -24 8 8 5 14 -9 22 -12 6 -23 7 -26 2z"/>
 <path d="M1522 1974 c-12 -8 -20 -20 -17 -25 3 -5 0 -6 -8 -3 -15 6 -43 -21 -30 -29 10 -6 87 43 92 58 5 16 -13 16 -37 -1z"/>
 <path d="M1595 1981 c-6 -11 29 -33 39 -24 7 7 -12 33 -25 33 -4 0 -10 -4 -14 -9z"/>
 <path d="M1087 1954 c-11 -12 4 -24 29 -24 15 0 27 -7 30 -17 3 -10 8 -24 10 -32 3 -10 7 -11 19 -1 13 10 13 16 0 40 -18 35 -68 54 -88 34z"/>
 <path d="M1376 1952 c-3 -6 1 -15 8 -21 8 -7 17 -8 20 -3 3 6 -1 15 -8 21 -8 7 -17 8 -20 3z"/>
 <path d="M1764 1946 c-3 -8 0 -24 6 -36 17 -31 34 -11 21 23 -12 30 -19 34 -27 13z"/>
 <path d="M2376 1952 c-9 -16 -4 -197 6 -209 12 -15 32 -7 22 8 -3 6 -6 53 -5 104 0 85 -8 121 -23 97z"/>
 <path d="M778 1934 c-28 -15 -64 -69 -50 -77 9 -6 94 80 85 86 -5 3 -20 -1 -35 -9z"/>
 <path d="M1015 1941 c-3 -5 5 -17 17 -25 16 -12 25 -13 35 -4 14 12 14 15 -2 18 -5 1 -18 6 -27 11 -10 5 -19 5 -23 0z"/>
 <path d="M2226 1941 c-8 -12 16 -30 45 -33 16 -2 24 2 24 12 0 8 -6 14 -13 12 -7 -1 -21 2 -32 8 -11 6 -21 6 -24 1z"/>
 <path d="M2087 1902 c-38 -40 -82 -128 -67 -137 11 -7 40 34 40 56 0 9 18 37 40 62 49 55 38 71 -13 19z"/>
 <path d="M2574 1915 c-43 -26 -80 -70 -65 -79 4 -3 21 8 37 25 16 17 44 37 62 45 18 7 31 18 27 24 -9 14 -15 13 -61 -15z"/>
 <path d="M2756 1931 c-9 -15 23 -36 35 -24 8 8 5 14 -9 22 -12 6 -23 7 -26 2z"/>
 <path d="M3276 1932 c-3 -5 17 -30 43 -56 31 -31 51 -44 56 -37 8 14 -6 32 -56 72 -21 16 -40 26 -43 21z"/>
 <path d="M3935 1926 c-14 -10 -15 -15 -6 -21 8 -4 19 -1 28 8 20 19 1 30 -22 13z"/>
 <path d="M4085 1931 c-7 -12 12 -24 25 -16 11 7 4 25 -10 25 -5 0 -11 -4 -15 -9z"/>
 <path d="M3060 1880 c-28 -27 -50 -53 -50 -58 0 -18 59 -74 71 -67 7 5 1 18 -18 37 l-28 30 52 48 c47 43 56 60 31 60 -5 0 -31 -22 -58 -50z"/>
 <path d="M3666 1901 c-9 -15 23 -36 35 -24 8 8 5 14 -9 22 -12 6 -23 7 -26 2z"/>
 <path d="M4126 1902 c-3 -5 12 -23 34 -41 38 -30 62 -30 37 1 -19 25 -65 50 -71 40z"/>
 <path d="M1565 1890 c-8 -13 20 -24 41 -16 8 3 12 10 9 16 -8 13 -42 13 -50 0z"/>
 <path d="M1661 1886 c-9 -10 -9 -16 -1 -21 17 -10 37 12 24 25 -8 8 -15 6 -23 -4z"/>
 <path d="M2806 1892 c-3 -5 3 -17 13 -26 11 -10 22 -13 25 -8 3 5 -3 17 -13 26 -11 10 -22 13 -25 8z"/>
 <path d="M1502 1874 c-12 -8 -22 -12 -22 -9 0 3 -9 1 -21 -6 -15 -8 -18 -14 -10 -22 7 -7 16 -6 28 5 10 8 23 14 29 11 14 -5 38 23 26 31 -5 3 -18 -2 -30 -10z"/>
 <path d="M865 1861 c-7 -12 12 -24 25 -16 11 7 4 25 -10 25 -5 0 -11 -4 -15 -9z"/>
 <path d="M915 1861 c-7 -12 12 -24 25 -16 11 7 4 25 -10 25 -5 0 -11 -4 -15 -9z"/>
 <path d="M3593 1854 c-12 -24 -11 -69 2 -69 6 0 10 9 11 20 0 11 4 26 8 34 5 7 4 17 -2 23 -7 7 -13 4 -19 -8z"/>
 <path d="M3719 1865 c-1 -5 -3 -14 -4 -20 -1 -5 -5 -27 -10 -48 -4 -24 -3 -42 4 -51 6 -7 8 -16 4 -19 -9 -9 17 -38 29 -31 5 3 3 15 -5 27 -12 18 -12 30 -2 70 10 38 9 51 -1 65 -7 9 -14 13 -15 7z"/>
 <path d="M827 1843 c-35 -59 -47 -87 -39 -95 6 -6 20 9 36 38 16 29 23 51 17 57 -5 5 -11 5 -14 0z"/>
 <path d="M965 1841 c-7 -12 44 -53 57 -45 5 3 -1 17 -13 30 -24 26 -35 29 -44 15z"/>
 <path d="M2655 1841 c-7 -12 12 -24 25 -16 11 7 4 25 -10 25 -5 0 -11 -4 -15 -9z"/>
 <path d="M2855 1841 c-4 -8 -1 -19 8 -28 19 -20 30 -1 13 22 -10 14 -15 15 -21 6z"/>
 <path d="M4025 1841 c-6 -11 29 -33 39 -24 7 7 -12 33 -25 33 -4 0 -10 -4 -14 -9z"/>
 <path d="M1396 1821 c-10 -11 -13 -22 -8 -25 5 -3 17 3 26 13 10 11 13 22 8 25 -5 3 -17 -3 -26 -13z"/>
 <path d="M2195 1831 c-6 -11 29 -33 39 -24 7 7 -12 33 -25 33 -4 0 -10 -4 -14 -9z"/>
 <path d="M3235 1831 c-3 -6 3 -15 14 -20 25 -14 33 -38 21 -61 -12 -22 4 -38 17 -18 15 24 10 63 -10 86 -22 24 -33 27 -42 13z"/>
 <path d="M3131 1817 c-6 -8 -8 -17 -5 -20 10 -9 45 13 39 24 -9 13 -21 11 -34 -4z"/>
 <path d="M3385 1821 c-4 -8 -1 -19 8 -28 19 -20 30 -1 13 22 -10 14 -15 15 -21 6z"/>
 <path d="M3837 1824 c-3 -4 -2 -16 4 -26 8 -15 14 -17 22 -9 8 8 7 15 -4 26 -8 9 -18 13 -22 9z"/>
 <path d="M3951 1817 c-6 -8 -8 -17 -5 -20 10 -9 45 13 39 24 -9 13 -21 11 -34 -4z"/>
 <path d="M678 1775 c-12 -27 -2 -78 16 -79 12 -1 15 94 4 100 -4 3 -13 -7 -20 -21z"/>
 <path d="M2140 1780 c-8 -15 -9 -25 -2 -32 7 -7 14 -3 22 12 8 15 9 25 2 32 -7 7 -14 3 -22 -12z"/>
 <path d="M2247 1794 c-3 -4 -1 -16 5 -28 7 -11 13 -30 15 -41 5 -34 12 -47 23 -40 15 9 12 41 -4 55 -8 6 -13 17 -10 24 5 14 -19 39 -29 30z"/>
 <path d="M1555 1779 c-7 -11 -8 -11 33 -14 18 -1 44 -13 57 -25 29 -27 47 -7 18 22 -21 20 -99 33 -108 17z"/>
 <path d="M2571 1777 c-6 -8 -8 -17 -5 -20 10 -9 45 13 39 24 -9 13 -21 11 -34 -4z"/>
 <path d="M4089 1756 c-7 -15 -26 -34 -42 -43 -20 -10 -26 -18 -19 -25 7 -7 20 -4 41 11 39 28 57 59 42 74 -7 7 -14 2 -22 -17z"/>
 <path d="M1785 1760 c-4 -6 -2 -17 4 -24 6 -7 8 -16 4 -19 -8 -9 17 -38 28 -31 5 3 7 10 4 15 -4 5 -8 19 -10 31 -6 28 -21 43 -30 28z"/>
 <path d="M1459 1719 c-15 -21 -18 -34 -11 -41 7 -7 14 -3 23 13 6 13 18 28 26 32 14 8 9 27 -7 27 -5 0 -18 -14 -31 -31z"/>
 <path d="M2015 1737 c-9 -22 -2 -62 10 -60 6 1 11 14 13 29 4 32 -14 56 -23 31z"/>
 <path d="M3380 1734 c-9 -10 -10 -18 -3 -25 8 -8 14 -5 22 9 13 25 -2 38 -19 16z"/>
 <path d="M1140 1724 c-9 -10 -10 -18 -3 -25 8 -8 14 -5 22 9 13 25 -2 38 -19 16z"/>
 <path d="M2844 1713 c-9 -15 -33 -42 -52 -59 -21 -19 -30 -34 -24 -38 14 -8 78 48 97 85 20 37 1 48 -21 12z"/>
 <path d="M795 1721 c-4 -8 -1 -19 8 -28 19 -20 30 -1 13 22 -10 14 -15 15 -21 6z"/>
 <path d="M1013 1714 c-3 -10 -15 -25 -26 -33 -22 -16 -9 -35 17 -25 23 9 40 54 27 67 -7 7 -13 4 -18 -9z"/>
 <path d="M2385 1711 c-4 -8 -1 -19 8 -28 19 -20 30 -1 13 22 -10 14 -15 15 -21 6z"/>
 <path d="M2695 1706 c-14 -10 -15 -15 -6 -21 8 -4 19 -1 28 8 20 19 1 30 -22 13z"/>
 <path d="M4141 1666 c-24 -24 -38 -46 -33 -50 12 -7 67 37 82 64 19 36 -7 28 -49 -14z"/>
 <path d="M2125 1690 c-4 -6 -3 -16 3 -22 6 -6 12 -6 17 2 4 6 3 16 -3 22 -6 6 -12 6 -17 -2z"/>
 <path d="M3604 1686 c-4 -10 -2 -22 4 -28 8 -8 13 -7 18 6 4 10 2 22 -4 28 -8 8 -13 7 -18 -6z"/>
 <path d="M2631 1676 c-9 -10 -9 -16 -1 -21 13 -8 42 14 34 26 -8 13 -20 11 -33 -5z"/>
 <path d="M3130 1669 c-29 -13 -40 -23 -33 -30 10 -10 76 12 87 30 12 19 -11 19 -54 0z"/>
 <path d="M3975 1676 c-14 -10 -15 -15 -6 -21 8 -4 19 -1 28 8 20 19 1 30 -22 13z"/>
 <path d="M1125 1670 c-4 -6 -3 -16 3 -22 6 -6 12 -6 17 2 4 6 3 16 -3 22 -6 6 -12 6 -17 -2z"/>
 <path d="M3726 1671 c-11 -18 19 -75 35 -66 9 6 -8 62 -21 70 -5 3 -11 1 -14 -4z"/>
 <path d="M2285 1630 c-4 -6 -3 -16 3 -22 6 -6 12 -6 17 2 4 6 3 16 -3 22 -6 6 -12 6 -17 -2z"/>
 <path d="M2376 1611 c-14 -15 -23 -30 -20 -34 10 -9 42 10 54 33 16 31 -5 32 -34 1z"/>
 <path d="M3281 1627 c-6 -8 -8 -17 -5 -20 10 -9 45 13 39 24 -9 13 -21 11 -34 -4z"/>
 <path d="M3881 1612 c-13 -25 2 -38 19 -16 9 10 10 18 3 25 -8 8 -14 5 -22 -9z"/>
 <path d="M736 1612 c-6 -11 46 -62 65 -66 8 -1 23 -7 34 -13 11 -6 22 -11 25 -11 3 -1 13 -4 23 -8 21 -8 43 9 32 26 -4 6 -17 10 -28 8 -12 -1 -28 1 -35 6 -7 4 -16 5 -19 2 -3 -3 -25 10 -49 29 -23 19 -45 31 -48 27z"/>
 <path d="M1115 1611 c-4 -8 -1 -19 8 -28 19 -20 30 -1 13 22 -10 14 -15 15 -21 6z"/>
 <path d="M1465 1611 c-4 -8 -1 -19 8 -28 19 -20 30 -1 13 22 -10 14 -15 15 -21 6z"/>
 <path d="M1633 1600 c-10 -11 -28 -31 -41 -44 -15 -16 -19 -27 -12 -31 12 -8 102 80 92 89 -10 11 -22 6 -39 -14z"/>
 <path d="M2014 1596 c-4 -12 -1 -76 5 -103 1 -1 10 -7 21 -13 32 -17 47 0 19 21 -19 14 -23 25 -20 57 2 40 -14 66 -25 38z"/>
 <path d="M2532 1594 c-6 -11 -10 -23 -10 -29 0 -5 4 -18 10 -29 7 -13 13 -15 21 -7 8 8 8 14 -1 23 -9 9 -9 15 0 25 8 10 8 17 1 24 -8 8 -14 6 -21 -7z"/>
 <path d="M2701 1597 c-6 -8 -8 -17 -5 -20 10 -9 45 13 39 24 -9 13 -21 11 -34 -4z"/>
 <path d="M1791 1586 c-13 -16 -7 -82 10 -102 19 -24 29 -5 15 29 -8 20 -10 41 -5 54 10 26 -4 39 -20 19z"/>
 <path d="M3054 1587 c-7 -20 -2 -47 11 -50 14 -3 19 43 6 56 -7 7 -12 6 -17 -6z"/>
 <path d="M3181 1586 c-9 -10 -8 -16 3 -25 12 -10 17 -8 25 7 16 30 -6 44 -28 18z"/>
 <path d="M2125 1581 c-4 -8 -1 -19 8 -28 19 -20 30 -1 13 22 -10 14 -15 15 -21 6z"/>
 <path d="M2655 1580 c-10 -17 12 -37 25 -24 8 8 6 15 -4 23 -10 9 -16 9 -21 1z"/>
 <path d="M3265 1576 c-14 -10 -15 -15 -6 -21 8 -4 19 -1 28 8 20 19 1 30 -22 13z"/>
 <path d="M3995 1580 c-10 -17 12 -37 25 -24 8 8 6 15 -4 23 -10 9 -16 9 -21 1z"/>
 <path d="M4085 1576 c-14 -10 -15 -15 -6 -21 8 -4 19 -1 28 8 20 19 1 30 -22 13z"/>
 <path d="M2725 1571 c-7 -12 12 -24 25 -16 11 7 4 25 -10 25 -5 0 -11 -4 -15 -9z"/>
 <path d="M2806 1561 c-4 -6 -2 -19 3 -29 11 -20 -2 -42 -25 -42 -6 0 -17 -6 -23 -14 -23 -27 9 -28 44 -2 25 19 33 32 30 52 -3 31 -20 51 -29 35z"/>
 <path d="M1120 1544 c-9 -10 -10 -18 -3 -25 8 -8 14 -5 22 9 13 25 -2 38 -19 16z"/>
 <path d="M991 1536 c-8 -10 -9 -16 -1 -21 5 -3 10 -3 10 1 0 4 9 -1 19 -10 30 -27 46 -9 19 20 -27 28 -32 29 -47 10z"/>
 <path d="M3339 1550 c-14 -47 1 -87 20 -52 7 14 6 24 -4 38 -8 11 -15 17 -16 14z"/>
 <path d="M3607 1543 c-8 -12 29 -73 44 -73 7 0 5 -8 -5 -19 -12 -13 -14 -21 -6 -26 15 -9 40 14 37 35 -4 25 -63 95 -70 83z"/>
 <path d="M3876 1542 c-8 -14 23 -64 35 -56 13 8 11 16 -10 43 -12 15 -21 20 -25 13z"/>
 <path d="M935 1531 c-7 -12 12 -24 25 -16 11 7 4 25 -10 25 -5 0 -11 -4 -15 -9z"/>
 <path d="M4153 1523 c-3 -10 -12 -25 -20 -35 -22 -25 2 -33 27 -8 11 11 20 26 20 34 0 23 -19 29 -27 9z"/>
 <path d="M2130 1514 c-9 -10 -10 -18 -3 -25 8 -8 14 -5 22 9 13 25 -2 38 -19 16z"/>
 <path d="M3076 1511 c-6 -9 18 -33 51 -50 24 -12 41 1 20 16 -36 27 -67 42 -71 34z"/>
 <path d="M2575 1491 c-6 -11 29 -33 39 -24 7 7 -12 33 -25 33 -4 0 -10 -4 -14 -9z"/>
 <path d="M3291 1477 c-6 -8 -8 -17 -5 -20 10 -9 45 13 39 24 -9 13 -21 11 -34 -4z"/>
 <path d="M1436 1471 c-4 -5 8 -21 25 -36 27 -22 40 -25 83 -23 66 4 66 22 0 26 -36 2 -57 9 -69 22 -20 22 -31 25 -39 11z"/>
 <path d="M1662 1444 c-26 -18 -20 -39 6 -25 9 5 21 9 25 9 16 0 18 9 4 20 -10 9 -19 8 -35 -4z"/>
 <path d="M3625 1390 c-4 -6 -3 -16 3 -22 6 -6 12 -6 17 2 4 6 3 16 -3 22 -6 6 -12 6 -17 -2z"/>
 <path d="M3685 1330 c-8 -13 20 -24 41 -16 20 8 9 26 -16 26 -10 0 -22 -5 -25 -10z"/>
 </g>
<g id="layer3" fill="#e8d1d2" stroke="none">
 <path d="M1524 2095 c-12 -8 -24 -12 -27 -9 -18 18 -147 -85 -147 -118 0 -29 30 -68 63 -82 28 -11 35 -9 84 23 36 23 50 38 44 44 -7 7 -27 0 -60 -20 -48 -31 -50 -31 -69 -12 -35 32 -36 54 -3 85 38 38 63 52 103 59 37 7 60 23 52 36 -7 13 -16 11 -40 -6z"/>
 <path d="M1605 2101 c-7 -12 14 -25 40 -26 11 0 34 -10 50 -23 16 -12 34 -21 41 -18 8 3 11 -1 7 -10 -3 -8 3 -24 12 -34 10 -11 15 -23 12 -27 -4 -3 0 -17 8 -29 8 -13 12 -29 9 -37 -2 -7 -1 -24 4 -38 5 -13 6 -33 2 -44 -5 -13 -2 -26 7 -37 9 -10 10 -18 4 -22 -6 -4 -6 -18 0 -39 11 -39 10 -127 -3 -144 -16 -20 8 -24 26 -4 14 16 17 33 13 93 -3 40 -8 87 -11 103 -4 17 -7 52 -7 80 0 27 -5 55 -11 62 -6 7 -7 13 -4 13 4 0 1 10 -6 23 -7 12 -13 27 -14 32 -5 49 -45 92 -99 105 -5 1 -19 9 -30 16 -23 16 -41 18 -50 5z"/>
 <path d="M2286 1969 c-16 -12 -33 -18 -45 -14 -33 10 -33 -13 0 -31 32 -16 33 -16 52 10 21 30 76 36 97 11 7 -8 17 -12 22 -9 5 3 -1 17 -13 30 -28 30 -77 32 -113 3z"/>
 <path d="M846 1971 c-4 -6 -13 -8 -20 -5 -20 8 -72 -27 -101 -67 -35 -48 -67 -120 -60 -137 8 -22 30 1 44 48 7 23 20 50 31 62 10 11 22 24 27 30 11 13 76 52 88 52 14 1 19 20 7 24 -6 2 -13 -1 -16 -7z"/>
 <path d="M957 1973 c-10 -9 13 -33 32 -33 9 -1 27 -7 40 -14 21 -12 28 -11 54 5 27 16 33 16 58 4 24 -13 26 -19 24 -59 -2 -24 -6 -49 -9 -55 -4 -6 -4 -16 -1 -21 8 -13 26 -3 24 13 -1 7 3 25 9 40 17 39 15 55 -8 87 -17 24 -27 29 -63 28 -23 0 -48 -5 -54 -10 -9 -7 -25 -5 -53 6 -46 18 -45 18 -53 9z"/>
 <path d="M1544 1969 c-6 -11 -7 -10 30 -15 15 -1 36 -10 46 -19 10 -9 21 -12 24 -7 9 15 -37 50 -67 50 -15 0 -30 -4 -33 -9z"/>
 <path d="M3206 1961 c-6 -10 10 -24 30 -27 44 -7 138 -69 129 -85 -3 -4 3 -14 13 -21 30 -21 33 -55 10 -96 -30 -52 -100 -123 -116 -117 -17 6 -28 -23 -14 -37 13 -13 81 -18 88 -7 2 4 -5 13 -17 19 -20 11 -20 12 14 36 40 27 80 102 84 156 2 31 -4 45 -39 85 -22 26 -46 50 -52 52 -6 2 -15 10 -21 17 -5 7 -26 15 -45 17 -20 2 -41 6 -47 10 -6 4 -14 3 -17 -2z"/>
 <path d="M2125 1950 c-49 -19 -129 -146 -123 -194 4 -37 22 -33 28 6 8 51 45 112 91 150 41 35 43 53 4 38z"/>
 <path d="M2635 1950 c-3 -5 -12 -7 -19 -4 -19 7 -83 -39 -116 -83 l-28 -37 20 -39 c12 -24 24 -37 33 -33 7 2 19 -1 25 -9 13 -16 39 -4 84 38 16 15 39 27 51 27 25 0 60 -34 51 -49 -10 -16 11 -22 24 -7 15 19 -11 60 -50 79 -25 13 -30 12 -74 -20 -72 -52 -87 -56 -112 -25 l-21 26 21 33 c19 29 87 78 111 78 18 1 36 16 30 26 -8 12 -22 12 -30 -1z"/>
 <path d="M2726 1951 c-8 -13 59 -45 75 -35 8 4 9 3 5 -5 -4 -6 5 -24 22 -41 48 -48 56 -83 30 -143 -22 -50 -71 -106 -94 -107 -6 0 -17 -7 -24 -15 -18 -22 5 -48 30 -35 27 14 66 -31 51 -59 -18 -33 -44 -41 -129 -41 -75 0 -80 1 -119 35 -23 20 -44 32 -46 28 -9 -16 9 -42 47 -68 35 -24 47 -26 125 -24 128 2 181 42 146 109 -13 26 -46 53 -56 47 -2 -1 10 11 28 26 57 49 86 101 84 150 -2 59 -7 69 -62 122 -31 30 -62 55 -67 55 -6 0 -17 3 -25 6 -8 3 -18 1 -21 -5z"/>
 <path d="M3155 1950 c-4 -6 -10 -8 -14 -5 -25 15 -125 -70 -136 -115 -8 -33 18 -71 36 -53 9 9 9 16 1 26 -15 17 11 75 37 84 9 4 29 15 44 26 16 10 31 16 34 13 9 -8 34 15 27 25 -7 12 -21 11 -29 -1z"/>
 <path d="M3976 1951 c-4 -5 -14 -8 -24 -7 -39 7 -132 -83 -132 -127 0 -18 40 -70 48 -63 3 4 13 -1 22 -9 14 -13 21 -10 65 26 41 34 54 40 79 35 35 -7 49 -25 34 -44 -22 -25 7 -34 31 -9 l22 24 -37 33 c-30 26 -42 31 -68 26 -16 -4 -42 -17 -56 -29 -14 -13 -37 -28 -52 -35 -26 -11 -29 -9 -44 20 -15 29 -15 32 4 57 23 31 93 82 107 77 16 -5 46 14 40 25 -8 12 -32 12 -39 0z"/>
 <path d="M4067 1953 c-8 -8 12 -33 26 -33 6 0 18 -7 28 -16 22 -20 46 -9 28 13 -11 12 -61 43 -72 43 -2 0 -7 -3 -10 -7z"/>
 <path d="M3633 1916 c-46 -26 -60 -57 -61 -135 -1 -40 3 -82 9 -93 6 -10 10 -51 10 -89 0 -52 5 -79 20 -106 13 -23 17 -39 10 -47 -5 -6 -10 -15 -11 -21 -2 -5 -5 -16 -8 -23 -14 -37 55 -102 109 -102 33 0 64 23 56 42 -3 9 0 21 6 27 8 8 8 14 0 22 -14 14 -34 2 -32 -19 3 -36 -2 -42 -34 -42 -22 0 -41 8 -56 24 l-23 24 22 48 c17 41 19 50 7 59 -25 19 -34 50 -35 123 -1 41 -5 79 -10 85 -5 7 -10 28 -11 47 -1 19 -2 42 -3 50 -4 48 4 66 37 87 l34 23 36 -36 c29 -28 36 -32 41 -19 7 18 -19 51 -58 71 -15 8 -28 14 -30 13 -2 -1 -13 -6 -25 -13z"/>
 <path d="M1493 1887 c-18 -10 -38 -20 -45 -21 -27 -5 -81 -45 -97 -72 -23 -37 -34 -81 -22 -88 12 -8 27 13 35 46 9 37 47 71 106 92 27 10 54 23 59 30 7 9 26 10 63 5 50 -6 84 3 73 21 -2 4 -35 7 -72 7 -49 0 -77 -6 -100 -20z"/>
 <path d="M4163 1894 c-4 -12 1 -22 15 -32 12 -8 22 -20 22 -27 0 -18 27 -38 34 -26 7 10 -35 84 -54 96 -5 3 -13 -2 -17 -11z"/>
 <path d="M2389 1890 c-5 -30 -4 -52 3 -56 4 -3 5 -11 1 -17 -10 -16 -12 -59 -4 -72 3 -5 7 -21 7 -35 1 -14 3 -27 4 -30 2 -3 3 -17 4 -32 0 -15 6 -28 11 -28 11 0 16 120 5 135 -4 6 -6 23 -5 38 1 15 -2 30 -7 33 -5 3 -4 12 3 20 10 12 9 18 -4 32 -10 9 -17 14 -18 12z"/>
 <path d="M841 1841 c-41 -41 -54 -81 -42 -122 12 -41 25 -54 42 -44 7 5 5 15 -6 32 -36 54 9 123 81 123 35 0 47 -5 68 -31 41 -49 25 -88 -54 -131 -32 -18 -34 -45 -2 -29 104 49 97 43 97 91 1 61 -5 75 -45 105 -43 32 -110 35 -139 6z"/>
 <path d="M3165 1828 c-11 -6 -33 -22 -49 -35 -17 -14 -35 -21 -46 -18 -29 9 -32 -11 -5 -29 24 -16 26 -15 64 20 22 19 51 39 65 42 14 4 27 12 28 17 4 15 -34 17 -57 3z"/>
 <path d="M2172 1808 c-26 -28 -45 -77 -37 -96 8 -23 32 3 39 43 9 45 22 52 51 25 16 -15 24 -37 29 -79 4 -32 10 -61 13 -65 4 -4 8 -14 9 -22 5 -32 14 -44 33 -44 30 0 33 16 7 34 -17 11 -24 24 -23 43 3 58 -13 113 -44 148 -36 41 -48 43 -77 13z"/>
 <path d="M3236 1811 c-3 -5 5 -16 19 -25 27 -18 44 -4 25 19 -14 17 -36 20 -44 6z"/>
 <path d="M3722 1808 c-16 -16 -15 -63 1 -77 19 -15 27 -4 27 40 0 41 -10 55 -28 37z"/>
 <path d="M1540 1765 c-7 -8 -18 -15 -25 -15 -48 0 -79 -86 -50 -138 43 -79 126 -105 153 -49 8 15 24 32 37 37 22 8 24 15 24 71 -1 53 -4 65 -26 85 -30 28 -93 33 -113 9z m97 -27 c16 -21 10 -101 -9 -123 -50 -56 -59 -65 -68 -65 -31 0 -84 95 -74 134 11 45 126 86 151 54z"/>
 <path d="M3235 1737 c-17 -13 -55 -33 -85 -46 -30 -14 -68 -37 -83 -53 -24 -26 -28 -36 -25 -81 3 -47 6 -54 46 -84 41 -31 49 -33 123 -33 90 0 137 15 162 53 21 33 2 50 -23 20 -26 -33 -51 -40 -140 -42 -77 -1 -88 1 -112 23 -24 21 -28 33 -28 75 0 48 2 51 38 69 20 11 53 24 73 31 47 15 107 66 94 80 -7 7 -19 3 -40 -12z"/>
 <path d="M4197 1715 c-15 -19 -27 -39 -27 -44 0 -6 -13 -17 -30 -26 -16 -9 -30 -19 -30 -24 0 -37 62 2 101 64 36 57 25 79 -14 30z"/>
 <path d="M665 1730 c-4 -6 3 -31 14 -55 12 -25 21 -48 21 -53 0 -31 136 -122 161 -107 15 10 2 23 -44 44 -63 29 -86 54 -102 109 -16 53 -38 81 -50 62z"/>
 <path d="M1145 1707 c-19 -41 -24 -82 -14 -120 6 -20 3 -36 -6 -51 -8 -13 -12 -26 -8 -30 4 -4 0 -4 -10 0 -9 3 -23 1 -30 -4 -9 -8 -21 -5 -42 12 -23 19 -35 22 -58 15 -18 -5 -37 -4 -48 1 -28 16 -33 -7 -5 -25 15 -10 33 -14 50 -9 17 4 37 0 60 -14 33 -19 35 -19 62 -3 49 30 59 49 61 120 1 36 6 79 13 95 17 44 -4 56 -25 13z"/>
 <path d="M2665 1710 c-27 -15 -53 -26 -56 -24 -3 2 -15 -3 -25 -11 -18 -13 -18 -14 0 -21 29 -11 165 65 139 78 -4 2 -30 -8 -58 -22z"/>
 <path d="M3726 1701 c-9 -14 16 -67 29 -61 13 7 8 41 -9 58 -10 10 -16 11 -20 3z"/>
 <path d="M3976 1695 c-15 -8 -34 -15 -40 -15 -22 0 -79 -67 -72 -85 7 -18 26 -11 26 10 0 7 7 16 16 19 9 3 14 12 11 20 -4 9 0 12 12 9 22 -5 103 35 95 48 -7 12 -14 11 -48 -6z"/>
 <path d="M1998 1683 c-11 -12 -15 -32 -12 -62 4 -52 16 -68 34 -46 11 13 11 20 -1 41 -11 21 -11 29 0 46 17 27 0 44 -21 21z"/>
 <path d="M845 1661 c-6 -11 29 -33 39 -24 7 7 -12 33 -25 33 -4 0 -10 -4 -14 -9z"/>
 <path d="M1323 1649 c-27 -27 103 -227 159 -244 32 -11 43 10 15 28 -65 42 -143 147 -151 203 -3 21 -11 25 -23 13z"/>
 <path d="M2545 1651 c-16 -27 -33 -91 -25 -96 11 -7 62 90 53 99 -9 9 -21 7 -28 -3z"/>
 <path d="M4075 1600 c-11 -18 15 -42 31 -29 17 14 30 5 50 -33 14 -27 14 -31 0 -47 -15 -17 -13 -31 5 -31 5 0 15 13 24 29 13 26 13 34 0 64 -14 34 -38 52 -56 42 -5 -3 -17 -1 -28 5 -14 7 -22 7 -26 0z"/>
 <path d="M2365 1590 c-8 -12 20 -24 35 -15 6 3 8 11 5 16 -8 12 -32 12 -40 -1z"/>
 <path d="M3200 1585 c-22 -27 12 -49 38 -23 8 8 9 15 1 25 -15 17 -24 16 -39 -2z"/>
 <path d="M4031 1586 c-9 -10 -8 -16 3 -25 10 -9 16 -8 25 3 9 10 8 16 -3 25 -10 9 -16 8 -25 -3z"/>
 <path d="M2686 1581 c-3 -5 0 -14 8 -20 10 -8 16 -8 25 2 6 8 8 17 4 20 -9 10 -31 9 -37 -2z"/>
 <path d="M2004 1535 c-8 -20 8 -53 22 -45 11 6 7 41 -6 54 -6 6 -12 3 -16 -9z"/>
 <path d="M1798 1535 c-3 -4 -1 -21 5 -40 9 -31 8 -36 -23 -64 l-33 -30 -29 24 c-23 19 -34 23 -48 15 -10 -5 -34 -11 -54 -12 -19 -2 -36 -7 -36 -13 -1 -14 66 -18 89 -5 14 7 22 6 32 -6 7 -8 18 -13 24 -10 7 2 17 0 23 -6 7 -7 24 2 53 30 42 38 43 41 34 78 -10 36 -24 51 -37 39z"/>
 <path d="M3865 1530 c-4 -7 11 -28 36 -51 l43 -39 93 1 c51 1 95 5 98 9 8 12 -23 33 -36 24 -7 -4 -44 -6 -83 -5 -66 2 -73 5 -107 38 -25 23 -39 31 -44 23z"/>
 <path d="M3744 1518 c-5 -7 -18 -18 -28 -24 -29 -16 -30 -29 -1 -48 29 -19 53 -12 34 10 -9 11 -8 19 6 34 13 15 15 24 8 31 -8 8 -13 7 -19 -3z"/>
 <path d="M2121 1494 c-18 -19 -27 -22 -37 -13 -8 6 -22 8 -31 4 -17 -6 -17 -7 1 -21 32 -23 106 -1 106 32 0 23 -15 23 -39 -2z"/>
 </g>
<g id="layer4" fill="#6e0c0c" stroke="none">
 <path d="M1555 2090 c-4 -6 -12 -10 -18 -8 -33 5 -100 -29 -138 -69 l-40 -43 27 -35 c14 -19 31 -36 38 -36 22 -3 41 3 51 14 31 35 58 50 99 52 46 2 56 -6 76 -61 9 -21 7 -23 -8 -16 -23 11 -92 8 -117 -5 -11 -6 -40 -20 -65 -31 -68 -31 -110 -71 -120 -117 -25 -109 -3 -172 87 -254 64 -58 65 -58 140 -65 57 -4 80 -2 95 9 19 12 24 12 46 -5 34 -28 49 -25 89 15 28 28 33 38 24 49 -19 23 -23 85 -6 109 17 25 20 93 4 102 -6 4 -8 13 -5 21 3 7 1 16 -3 18 -5 3 -6 32 -4 64 3 40 -1 72 -11 97 -9 21 -16 47 -16 60 0 31 -56 105 -79 105 -11 0 -23 5 -26 10 -3 6 -17 10 -30 10 -13 0 -27 5 -30 10 -8 13 -52 13 -60 0z m97 -338 c13 -13 12 -136 -1 -140 -6 -2 -20 -19 -31 -38 -47 -75 -134 -19 -155 101 -5 26 11 45 60 71 41 21 109 24 127 6z"/>
 <path d="M2292 1957 c-12 -13 -19 -27 -15 -31 5 -5 -9 -1 -31 8 -69 29 -94 22 -153 -39 -29 -30 -53 -62 -53 -70 0 -9 -6 -26 -12 -38 -22 -38 -23 -229 -3 -279 11 -27 63 -50 86 -38 31 17 37 40 38 150 1 90 3 124 10 162 0 4 12 15 25 23 23 15 25 15 50 -10 14 -14 26 -32 26 -40 0 -8 5 -17 11 -20 6 -4 8 -23 6 -42 -6 -46 17 -101 49 -115 22 -10 28 -8 59 22 34 33 46 72 25 85 -6 3 -7 17 -4 30 3 12 1 26 -4 29 -6 3 -11 52 -11 108 0 86 -3 105 -17 115 -27 20 -58 16 -82 -10z"/>
 <path d="M834 1961 c-31 -13 -120 -101 -137 -134 -19 -36 -15 -126 8 -176 17 -40 109 -118 131 -113 7 1 15 -2 19 -7 3 -6 12 -8 20 -4 8 3 23 2 33 -2 28 -12 81 -15 87 -4 4 5 21 -2 39 -16 30 -23 37 -24 60 -14 35 16 63 73 46 94 -9 11 -9 27 1 72 7 32 16 63 21 70 5 6 9 33 9 60 0 26 0 68 0 93 0 31 -6 49 -18 57 -24 18 -80 16 -91 -2 -7 -14 -12 -13 -35 5 -20 16 -45 23 -100 26 -39 2 -81 0 -93 -5z m138 -135 c34 -16 36 -21 40 -69 5 -56 -6 -91 -26 -84 -7 3 -23 -1 -37 -9 -38 -21 -76 -17 -109 14 -35 32 -44 72 -25 109 31 60 85 74 157 39z"/>
 <path d="M2620 1932 c-49 -23 -73 -42 -105 -80 -26 -31 -26 -34 -11 -57 35 -54 65 -52 132 8 36 32 68 30 103 -7 l21 -23 -27 -36 c-16 -20 -35 -36 -44 -37 -9 0 -22 -7 -29 -15 -7 -9 -18 -14 -24 -12 -6 2 -28 -4 -49 -15 -27 -14 -39 -27 -44 -49 -3 -16 -9 -32 -14 -35 -5 -3 -5 -13 0 -22 5 -9 14 -29 20 -44 6 -17 18 -28 30 -28 10 0 21 -7 25 -15 4 -11 23 -15 80 -15 42 0 78 5 81 11 4 6 13 8 20 5 7 -2 21 8 32 22 18 24 18 30 6 60 -16 38 -38 50 -64 34 -10 -7 -33 -12 -51 -11 -33 1 -33 1 10 14 48 16 100 60 143 123 44 65 37 104 -31 173 -66 67 -140 84 -210 51z"/>
 <path d="M3165 1943 c-29 -7 -110 -69 -129 -98 -15 -22 -15 -28 -2 -46 8 -12 24 -27 35 -36 20 -13 24 -12 53 17 23 23 43 33 79 37 57 7 79 -6 79 -46 0 -21 -11 -33 -57 -62 -32 -20 -75 -42 -96 -50 -62 -22 -75 -47 -68 -136 1 -6 24 -25 51 -42 57 -35 125 -41 194 -17 57 20 68 73 24 112 -16 15 -23 16 -38 6 -11 -7 -39 -11 -62 -11 -34 2 -37 3 -13 6 16 3 41 13 56 24 15 10 31 19 36 19 14 0 70 62 82 90 6 14 16 32 23 41 18 26 -8 68 -85 138 -69 63 -93 71 -162 54z"/>
 <path d="M3966 1935 c-15 -8 -34 -15 -41 -15 -7 0 -31 -20 -53 -44 -41 -44 -41 -45 -26 -75 24 -47 48 -56 84 -31 17 12 30 25 30 29 0 5 19 13 42 19 40 10 45 9 70 -15 16 -15 28 -33 28 -40 0 -19 -49 -63 -70 -63 -10 0 -23 -7 -30 -15 -7 -9 -19 -14 -25 -11 -32 12 -105 -66 -105 -112 0 -26 41 -82 73 -98 40 -21 161 -15 199 10 37 24 42 63 12 93 -24 24 -39 29 -48 15 -3 -5 -24 -9 -48 -10 -44 0 -43 2 3 12 43 9 179 155 179 191 0 32 -102 141 -153 163 -38 16 -86 15 -121 -3z"/>
 <path d="M3632 1894 c-42 -29 -64 -133 -39 -184 8 -15 12 -53 11 -93 -2 -54 2 -75 18 -103 11 -18 24 -34 29 -34 17 0 9 -35 -12 -48 -16 -11 -19 -19 -14 -45 9 -43 26 -58 74 -67 48 -9 61 2 66 55 2 29 -3 43 -26 70 -22 25 -26 34 -15 38 31 12 53 102 32 135 -4 6 -9 28 -12 49 -10 61 -11 67 -19 86 -4 10 -3 33 2 51 13 43 1 70 -38 90 -38 19 -30 19 -57 0z"/>
 </g>
<g id="layer5" fill="transparent" stroke="none">
 <path d="M0 1665 l0 -1665 2500 0 2500 0 0 1665 0 1665 -2500 0 -2500 0 0 -1665z m1678 403 c70 -31 120 -125 121 -226 0 -26 3 -60 7 -77 13 -64 16 -176 4 -190 -9 -11 -9 -26 1 -66 l13 -51 -31 -28 c-33 -29 -71 -31 -94 -4 -7 9 -17 11 -28 5 -9 -5 -58 -9 -108 -8 l-91 2 -41 45 c-67 72 -88 125 -86 213 3 97 20 123 117 168 56 26 87 34 133 35 51 1 60 4 63 20 4 24 -50 67 -85 67 -13 0 -34 -9 -46 -19 -58 -51 -81 -61 -107 -50 -56 24 -65 68 -22 108 31 29 91 62 99 54 3 -3 15 1 27 9 30 22 97 18 154 -7z m711 -112 c8 -10 9 -16 1 -21 -12 -8 -13 -52 -1 -59 7 -5 7 -64 0 -73 -6 -10 -4 -30 6 -43 14 -18 17 -128 4 -152 -7 -13 -22 -18 -53 -18 -40 0 -45 3 -55 32 -6 17 -14 55 -17 84 -5 42 -13 59 -40 85 -32 31 -34 32 -53 15 -11 -10 -23 -32 -27 -50 -3 -17 -8 -35 -11 -39 -3 -4 -5 -59 -5 -122 l0 -114 -29 -6 c-17 -4 -40 0 -59 10 -30 15 -32 20 -27 55 3 21 0 43 -6 49 -15 15 -17 79 -2 91 8 6 11 27 8 58 -4 39 1 57 26 103 47 86 60 94 150 94 60 0 81 4 95 18 21 21 79 23 95 3z m-1367 -16 c30 -11 41 -11 50 -2 7 7 28 12 48 12 51 0 68 -31 51 -92 -7 -24 -12 -63 -13 -88 0 -25 -5 -61 -11 -79 -5 -19 -10 -64 -11 -100 -1 -62 -3 -66 -34 -88 -33 -21 -35 -22 -60 -5 -14 9 -44 18 -67 19 -62 3 -150 20 -176 33 -29 15 -79 61 -79 72 0 5 -9 28 -20 50 -24 50 -25 93 -4 143 21 50 70 111 97 121 12 4 30 10 40 13 33 11 151 5 189 -9z m1787 -39 c53 -42 70 -72 73 -126 2 -58 -41 -124 -103 -155 -41 -22 -44 -40 -6 -40 63 -1 84 -80 29 -109 -9 -4 -57 -9 -107 -10 -80 -1 -93 2 -118 22 -35 29 -47 72 -33 114 10 28 49 69 69 71 43 5 147 76 147 100 0 19 -50 62 -72 62 -13 0 -45 -18 -72 -39 -45 -36 -50 -38 -74 -25 -14 7 -31 23 -38 36 -10 19 -9 27 8 51 21 30 81 72 114 79 10 3 47 4 81 3 52 -2 67 -7 102 -34z m472 30 c9 -1 41 -25 72 -55 52 -49 57 -57 54 -92 -2 -22 -10 -52 -20 -69 -9 -16 -19 -37 -22 -45 -4 -9 -26 -28 -51 -44 -44 -28 -50 -46 -15 -46 20 0 48 -27 51 -50 8 -55 -23 -70 -140 -70 -68 0 -81 3 -113 28 -32 24 -36 32 -37 74 0 56 12 70 95 109 33 16 79 45 103 65 l44 36 -34 29 c-51 43 -94 37 -151 -24 l-27 -29 -33 25 c-63 50 -20 124 93 160 13 4 46 3 131 -2z m842 -14 c15 -9 42 -33 61 -52 31 -31 35 -40 34 -86 0 -65 -33 -119 -95 -156 -47 -27 -48 -43 -3 -43 22 0 33 -7 45 -29 18 -35 12 -54 -22 -76 -18 -12 -28 -14 -38 -5 -9 8 -15 8 -20 0 -3 -5 -36 -10 -73 -10 -56 1 -72 5 -96 25 -25 20 -30 32 -33 79 -3 50 -1 56 24 74 16 10 46 26 68 36 74 32 87 40 107 68 18 27 19 31 4 52 -19 30 -67 42 -98 25 -12 -7 -35 -25 -50 -40 -27 -26 -29 -27 -57 -13 -17 8 -33 24 -36 35 -7 22 12 79 25 79 5 0 22 12 39 26 17 14 31 23 31 20 0 -3 10 -2 22 3 38 14 133 7 161 -12z m-426 -26 c31 -19 31 -20 37 -123 16 -281 17 -261 -7 -281 -21 -16 -21 -18 -4 -31 23 -18 37 -69 28 -103 -5 -20 -15 -29 -33 -31 -60 -7 -119 56 -88 93 7 8 9 15 5 15 -5 0 0 9 9 19 14 15 15 21 4 28 -26 16 -37 52 -37 121 0 39 -4 80 -10 91 -6 11 -11 53 -11 95 0 72 1 75 33 100 38 31 34 31 74 7z"/>
 <path d="M1525 1746 c-58 -34 -71 -66 -50 -122 30 -79 100 -115 130 -66 6 9 22 28 36 42 22 22 26 34 25 77 -2 91 -57 117 -141 69z"/>
 <path d="M842 1822 c-38 -36 -49 -82 -27 -116 10 -14 14 -26 10 -26 -4 0 -2 -7 5 -15 45 -54 175 -2 194 77 5 23 0 35 -30 68 -32 35 -42 40 -79 40 -33 0 -50 -6 -73 -28z"/>
 </g>

</svg>